Coordinates
version=1
nRows=31
nColumns=33
inDegrees=yes

Units are S.I. units (second, meters, Newtons, ...)
Angles are in degrees.

endheader
time	ground_thorax_rot_x	ground_thorax_rot_y	ground_thorax_rot_z	ground_thorax_tx	ground_thorax_ty	ground_thorax_tz	clav_prot_r	clav_elev_r	scapula_abduction_r	scapula_elevation_r	scapula_upward_rot_r	scapula_winging_r	shoulder_elv_r	plane_of_elev_r	axial_rot_r	elbow_flexion_r	pro_sup_r	wrist_flex_r	wrist_dev_r	clav_prot_l	clav_elev_l	scapula_abduction_l	scapula_elevation_l	scapula_upward_rot_l	scapula_winging_l	shoulder_elv_l	plane_of_elev_l	axial_rot_l	elbow_flexion_l	pro_sup_l	wrist_flex_l	wrist_dev_l	
6.6400	-40.365069	-4.645033	2.781985	-156.649351	891.553758	-9.015630	9.360918	-45.000000	39.872900	-45.000000	-28.777187	1700.943092	-3527.552615	31.665242	81.132344	1458.076334	68.493115	18.203522	3.704548	15.374625	39.153062	-40.948850	-45.000000	-42.608824	446.314094	-2255.095596	138.506131	162.941318	734.279752	-304.508484	3.969479	-21.877485	
6.6500	-40.362774	-4.382215	2.435852	-154.096501	893.351708	-8.870313	9.283242	-45.000000	40.257688	-45.000000	-27.520010	1700.925681	-3527.387866	31.725588	80.900934	1458.222088	69.818188	18.147940	3.588167	15.316687	39.316471	-41.191861	-45.000000	-41.864776	446.479324	-2254.996582	138.427731	163.389256	734.313519	-304.439239	3.935638	-21.878176	
6.6600	-40.376261	-4.133736	2.103198	-151.441790	894.995697	-8.705014	9.183783	-45.000000	40.641094	-45.000000	-26.230571	1700.923018	-3527.239575	31.764879	80.685077	1458.355828	71.108324	18.097891	3.482716	15.302755	39.495459	-41.439987	-45.000000	-41.107163	446.637435	-2254.915103	138.355818	163.856377	734.324371	-304.498665	3.913290	-21.866633	
6.6700	-40.402595	-3.893546	1.782287	-148.686360	896.465194	-8.517541	9.055532	-45.000000	41.022180	-45.000000	-24.886190	1700.929148	-3527.104923	31.776856	80.509511	1458.487867	72.384764	18.054567	3.385517	15.350149	39.689025	-41.701943	-45.000000	-40.352497	446.773380	-2254.850361	138.296203	164.360726	734.314692	-304.706679	3.903923	-21.846171	
6.6800	-40.444256	-3.665853	1.469479	-145.831489	897.741087	-8.305789	8.908296	-45.000000	41.403101	-45.000000	-23.505084	1700.946215	-3526.988566	31.769583	80.357007	1458.613656	73.647524	18.014844	3.296526	15.432122	39.895553	-41.970808	-45.000000	-39.595102	446.896603	-2254.805545	138.240267	164.887966	734.279090	-305.082335	3.918099	-21.825161	
6.6900	-40.500984	-3.446944	1.158841	-142.878709	898.805878	-8.067898	8.757418	-45.000000	41.782070	-45.000000	-22.110668	1700.971077	-3526.892875	31.754189	80.219775	1458.737182	74.884025	17.969758	3.210520	15.503799	40.107752	-42.240448	-45.000000	-38.815045	447.005201	-2254.782570	138.187428	165.423142	734.217588	-305.647890	3.970611	-21.820357	
6.7000	-40.572675	-3.239034	0.849239	-139.829324	899.644146	-7.802369	8.605454	-45.000000	42.155294	-45.000000	-20.721483	1701.005820	-3526.818595	31.738468	80.076190	1458.854897	76.075988	17.920135	3.128965	15.559271	40.326874	-42.507069	-45.000000	-38.010740	447.106029	-2254.785054	138.130978	165.952259	734.125689	-306.430437	4.068729	-21.834750	
6.7100	-40.655536	-3.030498	0.535851	-136.684555	900.242533	-7.508219	8.445484	-45.000000	42.516182	-45.000000	-19.321817	1701.043845	-3526.765918	31.721188	79.943286	1458.974269	77.221468	17.865787	3.049765	15.613448	40.550272	-42.776061	-45.000000	-37.180035	447.181526	-2254.812136	138.081866	166.483088	734.002839	-307.473118	4.218209	-21.871045	
6.7200	-40.748973	-2.825609	0.221291	-133.445203	900.589833	-7.185126	8.282588	-45.000000	42.867041	-45.000000	-17.932758	1701.087369	-3526.735713	31.705149	79.800433	1459.091927	78.312492	17.810206	2.975964	15.666508	40.778816	-43.048127	-45.000000	-36.336794	447.241301	-2254.864899	138.029625	167.010358	733.842557	-308.814491	4.426567	-21.926496	
6.7300	-40.851497	-2.621600	-0.096241	-130.111589	900.676716	-6.833564	8.115566	-45.000000	43.208932	-45.000000	-16.550407	1701.135937	-3526.734021	31.686054	79.658323	1459.205430	79.352350	17.752964	2.909053	15.721329	41.010366	-43.326329	-45.000000	-35.482840	447.281743	-2254.944712	137.978509	167.532281	733.644596	-310.492752	4.700456	-21.998996	
6.7400	-40.961464	-2.425308	-0.412555	-126.683377	900.495660	-6.454860	7.948800	-45.000000	43.542151	-45.000000	-15.195532	1701.194164	-3526.760318	31.665749	79.506258	1459.315697	80.339023	17.695645	2.849747	15.769108	41.245004	-43.605233	-45.000000	-34.623173	447.306569	-2255.051803	137.924255	168.040469	733.405600	-312.526379	5.045994	-22.083269	
6.7500	-41.076888	-2.235953	-0.729357	-123.159693	900.040534	-6.051111	7.778163	-45.000000	43.863722	-45.000000	-13.862097	1701.265056	-3526.819418	31.640573	79.360282	1459.420805	81.276250	17.636847	2.798348	15.809184	41.480359	-43.882159	-44.999999	-33.753392	447.311298	-2255.187776	137.873169	168.529137	733.128810	-314.921472	5.465641	-22.173016	
6.7600	-41.200036	-2.080675	-1.028281	-119.539683	899.306727	-5.624983	7.628997	-45.000000	44.173412	-45.000000	-12.634943	1701.364234	-3526.914273	31.618451	79.194558	1459.515809	82.143425	17.565654	2.753592	15.779171	41.704799	-44.144126	-44.999999	-32.894308	447.323970	-2255.352695	137.799612	168.984276	732.819733	-317.611305	5.960941	-22.262609	
6.7700	-41.325261	-1.953765	-1.312218	-115.822737	898.290928	-5.179337	7.487984	-45.000000	44.451128	-45.000000	-11.509589	1701.504246	-3527.041143	31.595250	79.002908	1459.596530	82.927866	17.493488	2.718374	15.699365	41.927108	-44.384399	-44.999998	-32.032001	447.336389	-2255.549025	137.710058	169.396618	732.491679	-320.532596	6.517472	-22.340311	
6.7800	-41.449034	-1.855605	-1.575517	-112.009653	896.991736	-4.716919	7.336472	-45.000000	44.677933	-45.000000	-10.494660	1701.700468	-3527.193345	31.561956	78.786025	1459.665704	83.627564	17.433998	2.694847	15.603695	42.152832	-44.591497	-44.999996	-31.165592	447.320161	-2255.771803	137.618239	169.770946	732.146727	-323.610088	7.115409	-22.386066	
6.7900	-41.564474	-1.763139	-1.831724	-108.102793	895.410130	-4.240095	7.143938	-45.000000	44.839019	-45.000000	-9.534750	1701.946030	-3527.370388	31.514080	78.564891	1459.726000	84.257456	17.398640	2.684443	15.557031	42.388630	-44.759015	-44.999993	-30.284299	447.234044	-2256.011240	137.547139	170.123403	731.795398	-326.818361	7.740403	-22.386961	
6.8000	-41.674156	-1.694784	-2.066970	-104.106972	893.550657	-3.750922	6.931977	-45.000000	44.938797	-45.000000	-8.683953	1702.245694	-3527.571902	31.458073	78.333505	1459.779965	84.821616	17.379496	2.684213	15.522082	42.619753	-44.876901	-44.999988	-29.417214	447.078389	-2256.258946	137.485550	170.465272	731.439129	-330.069153	8.380750	-22.338255	
6.8100	-41.773750	-1.639259	-2.288943	-100.029216	891.422197	-3.251536	6.697335	-45.000000	44.985670	-45.000000	-7.910607	1702.585904	-3527.795866	31.395473	78.089373	1459.827486	85.329013	17.382356	2.695255	15.527052	42.849742	-44.951680	-44.999978	-28.572160	446.846121	-2256.509815	137.436929	170.811674	731.088539	-333.300912	9.020792	-22.236858	
6.8200	-41.867066	-1.608502	-2.490472	-95.879385	889.039096	-2.744777	6.465647	-45.000000	45.000000	-45.000000	-7.244197	1702.959055	-3528.044392	31.332902	77.822222	1459.868751	85.775249	17.397485	2.715004	15.532381	43.066624	-44.987646	-44.999961	-27.772833	446.551851	-2256.760743	137.388634	171.170963	730.743489	-336.412677	9.649489	-22.087568	
6.8300	-41.953500	-1.589682	-2.682560	-91.669545	886.421128	-2.234613	6.241255	-45.000000	45.000000	-45.000000	-6.653288	1703.338650	-3528.325283	31.280685	77.532644	1459.901618	86.150928	17.413770	2.741695	15.541025	43.265826	-45.000000	-44.999931	-27.033906	446.209176	-2257.004251	137.333596	171.558108	730.419874	-339.339667	10.262316	-21.898930	
6.8400	-42.037159	-1.603298	-2.851270	-87.414256	883.593255	-1.726120	6.050818	-45.000000	45.000000	-45.000000	-6.178648	1703.729438	-3528.633665	31.239147	77.200922	1459.925403	86.431911	17.426539	2.774204	15.508816	43.441570	-45.000000	-44.999876	-26.382439	445.856146	-2257.247182	137.251848	171.963888	730.119913	-341.972609	10.838073	-21.679843	
6.8500	-42.114137	-1.626367	-3.013474	-83.129360	880.583481	-1.224698	5.876719	-45.000000	45.000000	-45.000000	-5.770399	1704.123858	-3528.965374	31.205772	76.819512	1459.938737	86.597105	17.446145	2.815434	15.478632	43.606349	-45.000000	-44.999778	-25.800808	445.489975	-2257.486987	137.155511	172.383426	729.852899	-344.273954	11.361997	-21.436898	
6.8600	-42.184656	-1.657513	-3.169552	-78.832422	877.421276	-0.734761	5.713044	-45.000000	45.000000	-45.000000	-5.419394	1704.530142	-3529.313373	31.171535	76.384818	1459.938988	86.623674	17.481827	2.868353	15.459291	43.767328	-45.000000	-44.999602	-25.274855	445.111089	-2257.727867	137.054244	172.790523	729.614460	-346.229578	11.816968	-21.176837	
6.8700	-42.246138	-1.680759	-3.330684	-74.539039	874.133423	-0.258050	5.549060	-45.000000	45.000000	-45.000000	-5.095907	1704.936301	-3529.682334	31.140830	75.908699	1459.920278	86.486804	17.527397	2.934369	15.464312	43.923057	-45.000000	-44.999286	-24.793072	444.708890	-2257.961422	136.957707	173.182000	729.408607	-347.871524	12.208480	-20.909218	
6.8800	-42.298667	-1.707602	-3.487341	-70.261833	870.742237	0.207171	5.391431	-45.000000	45.000000	-45.000000	-4.815470	1705.351106	-3530.064320	31.108763	75.390631	1459.879049	86.158086	17.585346	3.016194	15.478152	44.074993	-45.000000	-44.998722	-24.359125	444.294416	-2258.193468	136.860753	173.554044	729.224136	-349.201430	12.532547	-20.639984	
6.8900	-42.340740	-1.734204	-3.642946	-66.006815	867.262832	0.666122	5.239243	-45.000000	45.000000	-45.000000	-4.569683	1705.771170	-3530.458047	31.076362	74.835993	1459.810842	85.613767	17.655829	3.116613	15.504984	44.221661	-45.000000	-44.997710	-23.967414	443.863382	-2258.423499	136.763120	173.932960	729.054132	-350.221234	12.796737	-20.378397	
6.9000	-42.373278	-1.762731	-3.797517	-61.778088	863.706174	1.125802	5.092153	-45.000000	45.000000	-45.000000	-4.361786	1706.198072	-3530.861186	31.042552	74.250090	1459.713830	84.833475	17.739120	3.237834	15.538194	44.363247	-45.000000	-44.995901	-23.612931	443.419758	-2258.654313	136.658519	174.352891	728.887902	-350.915801	13.010936	-20.132328	
6.9100	-42.395850	-1.797754	-3.948676	-57.577572	860.079815	1.593169	4.955039	-45.000000	45.000000	-45.000000	-4.194339	1706.631585	-3531.272014	31.006856	73.641652	1459.584708	83.813137	17.836537	3.382488	15.583797	44.496389	-45.000000	-44.992650	-23.307435	442.962328	-2258.883428	136.539115	174.858887	728.716214	-351.272441	13.183241	-19.910248	
6.9200	-42.411050	-1.841718	-4.097212	-53.412814	856.393713	2.072660	4.828997	-45.000000	45.000000	-45.000000	-4.074818	1707.078186	-3531.686157	30.967085	73.016732	1459.426169	82.548023	17.951474	3.552545	15.636464	44.620434	-45.000000	-44.986853	-23.048431	442.495883	-2259.107340	136.399066	175.479831	728.527365	-351.276738	13.322028	-19.715405	
6.9300	-42.415970	-1.900237	-4.237466	-49.296550	852.661336	2.565081	4.722799	-45.000000	45.000000	-45.000000	-4.011982	1707.539088	-3532.097048	30.923994	72.383470	1459.236880	81.043772	18.086720	3.750544	15.699293	44.729333	-45.000000	-44.976395	-22.852352	442.027298	-2259.324066	136.230162	176.218626	728.321836	-350.943784	13.428310	-19.550794	
6.9400	-42.410318	-1.967918	-4.369595	-45.251573	848.903371	3.067385	4.634764	-45.000000	45.000000	-45.000000	-3.999789	1708.010236	-3532.506630	30.878733	71.752850	1459.012509	79.299788	18.236816	3.978597	15.761666	44.817634	-45.000000	-44.957871	-22.705389	441.558031	-2259.530939	136.044348	177.036203	728.101987	-350.328716	13.511575	-19.411467	
